<svg width="24" height="24" viewBox="0 0 24 24" fill="none" xmlns="http://www.w3.org/2000/svg">
<path d="M6.21077 7.5C5.16488 7.88826 4.18388 8.50264 3.34338 9.34315C0.219183 12.4673 0.219183 17.5327 3.34338 20.6569C6.46757 23.781 11.5329 23.781 14.6571 20.6569C15.4974 19.8165 16.1117 18.8357 16.5 17.7901" stroke="#2E334C" stroke-width="2" stroke-linecap="round" stroke-dasharray="1 4"/>
<path d="M7.58152 12C7.20651 11.0736 7 10.0609 7 9C7 4.58172 10.5817 1 15 1C19.4183 1 23 4.58172 23 9C23 13.4183 19.4183 17 15 17C13.9391 17 12.9264 16.7935 12 16.4185" stroke="#2E334C" stroke-width="2" stroke-linecap="round"/>
<path d="M8 16L16 8M16 8V12M16 8H12" stroke="#2E334C" stroke-width="1.5" stroke-linecap="round"/>
</svg>
